<svg fill="none" height="22" viewBox="0 0 24 22" width="24" xmlns="http://www.w3.org/2000/svg"><g fill="#000"><path d="m7 11v2h-2v-2z" fill="#f5941f" opacity="1" original-fill="#000000"></path><path d="m11 11h-2v2h2z" fill="#f5941f" opacity="1" original-fill="#000000"></path><path d="m13 11h2v2h-2z" fill="#f5941f" opacity="1" original-fill="#000000"></path><path d="m19 13v-2h-2v2z" fill="#f5941f" opacity="1" original-fill="#000000"></path><path d="m7 15v2h-2v-2z" fill="#f5941f" opacity="1" original-fill="#000000"></path><path d="m11 15h-2v2h2z" fill="#f5941f" opacity="1" original-fill="#000000"></path><path d="m13 15h2v2h-2z" fill="#f5941f" opacity="1" original-fill="#000000"></path><path d="m19 17v-2h-2v2z" fill="#f5941f" opacity="1" original-fill="#000000"></path><path clip-rule="evenodd" d="m7 1c0-.552285-.44772-1-1-1s-1 .447715-1 1v1h-2c-1.65685 0-3 1.34315-3 3v14c0 .1036.00524664.2059.0154886.3067.1536294 1.5128 1.4312114 2.6933 2.9845114 2.6933h18c1.6569 0 3-1.3431 3-3v-14c0-1.65685-1.3431-3-3-3h-1v-1c0-.552285-.4477-1-1-1s-1 .447715-1 1v1h-11zm15 5v-1c0-.55229-.4477-1-1-1h-18c-.55228 0-1 .44772-1 1v1zm-20 2v11c0 .5523.44772 1 1 1h18c.5501 0 .9965-.4442 1-.9935v-.0065-11z" fill-rule="evenodd" fill="#f5941f" opacity="1" original-fill="#000000"></path></g></svg>